<svg width="64" height="64" viewBox="0 0 64 64" fill="none" xmlns="http://www.w3.org/2000/svg">
  <!-- Original MemTrace Brain-Tree Icon (Reconstructed Vector) -->
  <g stroke="currentColor" stroke-width="2.5" stroke-linecap="round" stroke-linejoin="round">
    <!-- Trunk -->
    <path d="M32 60V48" />
    
    <!-- Base Branches -->
    <path d="M32 48C24 48 18 44 14 36" />
    <path d="M32 48C40 48 46 44 50 36" />
    
    <!-- Left Lobe / Branch Network -->
    <path d="M14 36C10 28 12 18 20 14" />
    <path d="M14 36L22 30" />
    <path d="M22 30C22 24 26 20 32 20" />
    <path d="M20 14C24 10 30 10 32 14" />
    
    <!-- Right Lobe / Branch Network -->
    <path d="M50 36C54 28 52 18 44 14" />
    <path d="M50 36L42 30" />
    <path d="M42 30C42 24 38 20 32 20" />
    <path d="M44 14C40 10 34 10 32 14" />
    
    <!-- Center Vertical Connection -->
    <path d="M32 20V14" />
    
    <!-- Neural Nodes (Circles) -->
    <circle cx="14" cy="36" r="2" fill="currentColor" stroke="none" />
    <circle cx="50" cy="36" r="2" fill="currentColor" stroke="none" />
    <circle cx="20" cy="14" r="2" fill="currentColor" stroke="none" />
    <circle cx="44" cy="14" r="2" fill="currentColor" stroke="none" />
    <circle cx="32" cy="14" r="2" fill="currentColor" stroke="none" />
    <circle cx="32" cy="20" r="2" fill="currentColor" stroke="none" />
    <circle cx="22" cy="30" r="2" fill="currentColor" stroke="none" />
    <circle cx="42" cy="30" r="2" fill="currentColor" stroke="none" />
  </g>
</svg>