<svg width="240" height="60" viewBox="0 0 240 60" fill="none" xmlns="http://www.w3.org/2000/svg">
  <!-- Brand Icon (Indigo-600) -->
  <g transform="translate(0, 0) scale(1)" stroke="#4f46e5" stroke-width="2.5" stroke-linecap="round" stroke-linejoin="round">
    <path d="M30 56V44" />
    <path d="M30 44C22 44 16 40 12 32" />
    <path d="M30 44C38 44 44 40 48 32" />
    <path d="M12 32C8 24 10 14 18 10" />
    <path d="M12 32L20 26" />
    <path d="M20 26C20 20 24 16 30 16" />
    <path d="M18 10C22 6 28 6 30 10" />
    <path d="M48 32C52 24 50 14 42 10" />
    <path d="M48 32L40 26" />
    <path d="M40 26C40 20 36 16 30 16" />
    <path d="M42 10C38 6 32 6 30 10" />
    <path d="M30 16V10" />
    
    <!-- Nodes -->
    <circle cx="12" cy="32" r="2" fill="#4f46e5" stroke="none" />
    <circle cx="48" cy="32" r="2" fill="#4f46e5" stroke="none" />
    <circle cx="18" cy="10" r="2" fill="#4f46e5" stroke="none" />
    <circle cx="42" cy="10" r="2" fill="#4f46e5" stroke="none" />
    <circle cx="30" cy="10" r="2" fill="#4f46e5" stroke="none" />
    <circle cx="30" cy="16" r="2" fill="#4f46e5" stroke="none" />
    <circle cx="20" cy="26" r="2" fill="#4f46e5" stroke="none" />
    <circle cx="40" cy="26" r="2" fill="#4f46e5" stroke="none" />
  </g>

  <!-- Brand Text (Slate-900) -->
  <text x="65" y="40" fill="#0f172a" style="font-family: 'Outfit', sans-serif; font-weight: 700; font-size: 32px; letter-spacing: -0.02em;">MemTrace</text>
</svg>